<svg xmlns="http://www.w3.org/2000/svg" width="20.756" height="13.23" viewBox="0 0 20.756 13.23">
  <path id="Behance_icon" data-name="Behance icon" d="M-1006.5-33.953a3.351,3.351,0,0,0,.971-.728,3.089,3.089,0,0,0,.607-1.942,3.359,3.359,0,0,0-.607-1.942,3.788,3.788,0,0,0-3.277-1.335H-1015v12.987h5.7a9.186,9.186,0,0,0,1.821-.121,4.051,4.051,0,0,0,1.457-.607,3.272,3.272,0,0,0,.85-.971,4.092,4.092,0,0,0,.607-2.063,3.562,3.562,0,0,0-.486-1.942,2.584,2.584,0,0,0-1.457-1.335Zm-5.947-3.763h2.792a4.527,4.527,0,0,1,1.457.243,1.218,1.218,0,0,1,.728,1.214c0,.486-.121.971-.485,1.092a2.447,2.447,0,0,1-1.335.364h-3.156v-2.913Zm4.37,8.253a3.747,3.747,0,0,1-1.335.243h-3.156v-3.52h3.156a4.363,4.363,0,0,1,1.335.243,1.545,1.545,0,0,1,.85,1.457A1.647,1.647,0,0,1-1008.082-29.462Zm6.311-9.953h5.462v1.578h-5.462Zm6.554,4.369a5.941,5.941,0,0,0-1.578-1.456,6.388,6.388,0,0,0-2.185-.486,4.767,4.767,0,0,0-3.4,1.335,5.366,5.366,0,0,0-1.335,3.884,4.779,4.779,0,0,0,1.457,3.884,4.785,4.785,0,0,0,3.277,1.214,4.322,4.322,0,0,0,3.52-1.457,4.977,4.977,0,0,0,.971-1.7h-2.549a2.648,2.648,0,0,1-.485.607,2.546,2.546,0,0,1-1.335.486,2.447,2.447,0,0,1-1.335-.364,2.281,2.281,0,0,1-.971-2.063h6.918a8.639,8.639,0,0,0-.121-1.942A9.4,9.4,0,0,0-995.216-35.045Zm-5.947,2.306a4.051,4.051,0,0,1,.607-1.457A1.819,1.819,0,0,1-999.1-34.8a1.935,1.935,0,0,1,1.457.486,2.1,2.1,0,0,1,.607,1.578Z" transform="translate(1015.001 39.901)" fill="#5a80fb"/>
</svg>
