<svg xmlns="http://www.w3.org/2000/svg" width="23.182" height="14.564" viewBox="0 0 23.182 14.564">
  <path id="Google_icon" data-name="Google+ icon" d="M-1176.7-34.153v2.913h4.005a3.683,3.683,0,0,1-4.005,2.913,4.25,4.25,0,0,1-4.248-4.369,4.25,4.25,0,0,1,4.248-4.369,4.164,4.164,0,0,1,2.792,1.092c.607-.607.607-.728,2.063-2.185a7.29,7.29,0,0,0-4.976-1.942,7.3,7.3,0,0,0-7.282,7.282,7.3,7.3,0,0,0,7.282,7.282c6.069,0,7.525-5.219,7.04-8.739h-6.918Zm13.23.121V-36.58h-1.821v2.549h-2.67v1.821h2.67v2.549h1.821v-2.549h2.549v-1.821Z" transform="translate(1184.1 40.1)" fill="#5a80fb"/>
</svg>
