<svg id="Instagram_icon" data-name="Instagram icon" xmlns="http://www.w3.org/2000/svg" width="19.332" height="19.328" viewBox="0 0 19.332 19.328">
  <path id="Path_2532" data-name="Path 2532" d="M9.662,1.741c2.581,0,2.884.012,3.9.058a5.273,5.273,0,0,1,1.8.334,3,3,0,0,1,1.112.721A2.952,2.952,0,0,1,17.2,3.966a5.372,5.372,0,0,1,.334,1.8c.046,1.02.058,1.323.058,3.9s-.012,2.884-.058,3.9a5.273,5.273,0,0,1-.334,1.8,3,3,0,0,1-.721,1.112,2.952,2.952,0,0,1-1.112.721,5.372,5.372,0,0,1-1.8.334c-1.02.046-1.323.058-3.9.058s-2.884-.012-3.9-.058a5.273,5.273,0,0,1-1.8-.334,3,3,0,0,1-1.112-.721,2.952,2.952,0,0,1-.721-1.112,5.372,5.372,0,0,1-.334-1.8c-.046-1.02-.058-1.323-.058-3.9s.012-2.884.058-3.9a5.273,5.273,0,0,1,.334-1.8A3,3,0,0,1,2.85,2.854a2.952,2.952,0,0,1,1.112-.721,5.372,5.372,0,0,1,1.8-.334c1.02-.05,1.327-.058,3.9-.058M9.662,0C7.038,0,6.708.012,5.677.058A7.082,7.082,0,0,0,3.333.506,4.71,4.71,0,0,0,1.622,1.622,4.793,4.793,0,0,0,.506,3.333,7.087,7.087,0,0,0,.058,5.681C.012,6.708,0,7.038,0,9.662s.012,2.953.058,3.985a7.129,7.129,0,0,0,.449,2.347,4.71,4.71,0,0,0,1.116,1.711,4.793,4.793,0,0,0,1.711,1.116,7.087,7.087,0,0,0,2.347.449c1.032.046,1.358.058,3.985.058s2.953-.012,3.985-.058A7.129,7.129,0,0,0,16,18.821a4.71,4.71,0,0,0,1.711-1.116,4.793,4.793,0,0,0,1.116-1.711,7.087,7.087,0,0,0,.449-2.347c.046-1.032.058-1.358.058-3.985s-.012-2.953-.058-3.985a7.129,7.129,0,0,0-.449-2.347,4.71,4.71,0,0,0-1.116-1.711A4.793,4.793,0,0,0,16,.5,7.087,7.087,0,0,0,13.651.054C12.615.012,12.285,0,9.662,0Z" transform="translate(0 0)" fill="#5a80fb"/>
  <path id="Path_2533" data-name="Path 2533" d="M127.463,122.6a4.963,4.963,0,1,0,4.963,4.963A4.964,4.964,0,0,0,127.463,122.6Zm0,8.181a3.222,3.222,0,1,1,3.222-3.222A3.222,3.222,0,0,1,127.463,130.781Z" transform="translate(-117.801 -117.898)" fill="#5a80fb"/>
  <circle id="Ellipse_31" data-name="Ellipse 31" cx="1.158" cy="1.158" r="1.158" transform="translate(13.662 3.345)" fill="#5a80fb"/>
</svg>
