<svg xmlns="http://www.w3.org/2000/svg" width="17.824" height="17.861" viewBox="0 0 17.824 17.861">
  <path id="Path_14" data-name="Path 14" d="M-1.6-9A7.419,7.419,0,0,0-9-1.6a7.419,7.419,0,0,0,7.4,7.4A7.3,7.3,0,0,0,2.6,4.467l4,4a1.287,1.287,0,0,0,1.849,0,1.327,1.327,0,0,0,0-1.849l-3.981-4A7.42,7.42,0,0,0,5.795-1.6,7.419,7.419,0,0,0-1.6-9Zm0,2.611A4.773,4.773,0,0,1,3.184-1.6,4.773,4.773,0,0,1-1.6,3.184,4.773,4.773,0,0,1-6.389-1.6,4.773,4.773,0,0,1-1.6-6.389Z" transform="translate(9 9)"/>
</svg>
