<svg xmlns="http://www.w3.org/2000/svg" width="20.514" height="20.514" viewBox="0 0 20.514 20.514">
  <path id="Facebook_icon" data-name="Facebook icon" d="M-1120.409-23.5a1.088,1.088,0,0,1-1.092,1.092h-5.219V-30.42h2.67l.364-3.156h-3.034v-1.942c0-.85.243-1.456,1.578-1.456h1.7v-2.792c-.243,0-1.214-.121-2.427-.121-2.427,0-4.005,1.456-4.005,4.127v2.306h-2.67V-30.3h2.67v8.011h-9.831a1.088,1.088,0,0,1-1.092-1.092V-41.708a1.088,1.088,0,0,1,1.092-1.092h18.328a1.088,1.088,0,0,1,1.092,1.092V-23.5" transform="translate(1140.801 42.801)" fill="#5a80fb"/>
</svg>
